<svg width="78" height="16" viewBox="0 0 78 16" fill="none" xmlns="http://www.w3.org/2000/svg">
<path d="M15.5 6.3H9.775L8 0.75L6.225 6.3H0.5L5.125 9.725L3.375 15.25L8 11.825L12.625 15.25L10.85 9.7L15.5 6.3Z" fill="#FF352B"/>
<path d="M31 6.3H25.275L23.5 0.75L21.725 6.3H16L20.625 9.725L18.875 15.25L23.5 11.825L28.125 15.25L26.35 9.7L31 6.3Z" fill="#FF352B"/>
<path d="M46.5 6.3H40.775L39 0.75L37.225 6.3H31.5L36.125 9.725L34.375 15.25L39 11.825L43.625 15.25L41.85 9.7L46.5 6.3Z" fill="#FF352B"/>
<path d="M62 6.3H56.275L54.5 0.75L52.725 6.3H47L51.625 9.725L49.875 15.25L54.5 11.825L59.125 15.25L57.35 9.7L62 6.3Z" fill="#FF352B"/>
<path d="M77.5 6.3H71.775L70 0.75L68.225 6.3H62.5L67.125 9.725L65.375 15.25L70 11.825L74.625 15.25L72.85 9.7L77.5 6.3Z" fill="#FF352B"/>
</svg>
